<svg width="44" height="44" viewBox="0 0 44 44" fill="none" xmlns="http://www.w3.org/2000/svg">
<g id="Instagram" clip-path="url(#clip0_179_1699)">
<g id="Instagram_2">
<rect id="Rectangle" width="44" height="44" rx="22" fill="url(#paint0_radial_179_1699)"/>
<rect id="Rectangle_2" width="44" height="44" rx="22" fill="url(#paint1_radial_179_1699)"/>
<path id="Vector" d="M17.4179 22C17.4179 19.4688 19.4693 17.4163 22.0005 17.4163C24.5317 17.4163 26.5842 19.4688 26.5842 22C26.5842 24.5312 24.5317 26.5837 22.0005 26.5837C19.4693 26.5837 17.4179 24.5312 17.4179 22ZM14.94 22C14.94 25.8995 18.101 29.0605 22.0005 29.0605C25.9 29.0605 29.0609 25.8995 29.0609 22C29.0609 18.1005 25.9 14.9395 22.0005 14.9395C18.101 14.9395 14.94 18.1005 14.94 22ZM27.6905 14.6596C27.6903 14.9859 27.787 15.305 27.9682 15.5764C28.1494 15.8478 28.407 16.0594 28.7084 16.1844C29.0099 16.3094 29.3416 16.3422 29.6617 16.2787C29.9818 16.2151 30.2759 16.0581 30.5067 15.8274C30.7376 15.5968 30.8948 15.3028 30.9586 14.9828C31.0224 14.6628 30.9899 14.331 30.8651 14.0294C30.7403 13.7279 30.529 13.4701 30.2577 13.2887C29.9864 13.1073 29.6675 13.0104 29.3411 13.0103H29.3405C28.903 13.0105 28.4836 13.1843 28.1742 13.4935C27.8648 13.8028 27.6908 14.2222 27.6905 14.6596ZM16.4455 33.1922C15.1049 33.1311 14.3763 32.9078 13.8921 32.7192C13.2501 32.4692 12.7921 32.1716 12.3105 31.6907C11.8289 31.2097 11.5308 30.7521 11.282 30.1102C11.0932 29.6262 10.8699 28.8973 10.809 27.5568C10.7423 26.1074 10.729 25.672 10.729 22.0001C10.729 18.3282 10.7434 17.894 10.809 16.4435C10.87 15.1029 11.095 14.3755 11.282 13.89C11.5319 13.2481 11.8296 12.79 12.3105 12.3085C12.7914 11.8269 13.249 11.5288 13.8921 11.28C14.3761 11.0912 15.1049 10.8679 16.4455 10.8069C17.8948 10.7403 18.3302 10.727 22.0005 10.727C25.6707 10.727 26.1066 10.7414 27.5571 10.8069C28.8977 10.868 29.6251 11.093 30.1106 11.28C30.7525 11.5288 31.2106 11.8275 31.6921 12.3085C32.1737 12.7894 32.4707 13.2481 32.7206 13.89C32.9094 14.374 33.1327 15.1029 33.1936 16.4435C33.2603 17.894 33.2736 18.3282 33.2736 22.0001C33.2736 25.672 33.2603 26.1062 33.1936 27.5568C33.1326 28.8973 32.9082 29.626 32.7206 30.1102C32.4707 30.7521 32.1731 31.2102 31.6921 31.6907C31.2112 32.1712 30.7525 32.4692 30.1106 32.7192C29.6266 32.9079 28.8977 33.1312 27.5571 33.1922C26.1078 33.2588 25.6724 33.2721 22.0005 33.2721C18.3286 33.2721 17.8944 33.2588 16.4455 33.1922ZM16.3316 8.33327C14.8679 8.39993 13.8676 8.63203 12.9941 8.97193C12.0895 9.32294 11.3237 9.79385 10.5584 10.5579C9.79313 11.322 9.32343 12.089 8.97242 12.9936C8.63252 13.8677 8.40042 14.8674 8.33376 16.3312C8.266 17.7972 8.25049 18.2659 8.25049 22C8.25049 25.7341 8.266 26.2028 8.33376 27.6688C8.40042 29.1327 8.63252 30.1323 8.97242 31.0064C9.32343 31.9104 9.79324 32.6784 10.5584 33.4421C11.3236 34.2058 12.0895 34.6761 12.9941 35.0281C13.8693 35.368 14.8679 35.6001 16.3316 35.6667C17.7985 35.7334 18.2664 35.75 22.0005 35.75C25.7345 35.75 26.2033 35.7345 27.6693 35.6667C29.1332 35.6001 30.1328 35.368 31.0068 35.0281C31.9109 34.6761 32.6773 34.2062 33.4426 33.4421C34.2078 32.678 34.6766 31.9104 35.0286 31.0064C35.3685 30.1323 35.6017 29.1326 35.6672 27.6688C35.7339 26.2017 35.7494 25.7341 35.7494 22C35.7494 18.2659 35.7339 17.7972 35.6672 16.3312C35.6006 14.8673 35.3685 13.8671 35.0286 12.9936C34.6766 12.0895 34.2066 11.3232 33.4426 10.5579C32.6785 9.79264 31.9109 9.32294 31.0079 8.97193C30.1328 8.63203 29.1331 8.39883 27.6704 8.33327C26.2044 8.26661 25.7356 8.25 22.0016 8.25C18.2675 8.25 17.7985 8.26551 16.3316 8.33327Z" fill="white"/>
</g>
</g>
<defs>
<radialGradient id="paint0_radial_179_1699" cx="0" cy="0" r="1" gradientUnits="userSpaceOnUse" gradientTransform="translate(11.6876 47.3889) rotate(-90) scale(43.6073 40.5582)">
<stop stop-color="#FFDD55"/>
<stop offset="0.1" stop-color="#FFDD55"/>
<stop offset="0.5" stop-color="#FF543E"/>
<stop offset="1" stop-color="#C837AB"/>
</radialGradient>
<radialGradient id="paint1_radial_179_1699" cx="0" cy="0" r="1" gradientUnits="userSpaceOnUse" gradientTransform="translate(-7.37023 3.16969) rotate(78.6806) scale(19.4926 80.3494)">
<stop stop-color="#3771C8"/>
<stop offset="0.128" stop-color="#3771C8"/>
<stop offset="1" stop-color="#6600FF" stop-opacity="0"/>
</radialGradient>
<clipPath id="clip0_179_1699">
<rect width="44" height="44" fill="white"/>
</clipPath>
</defs>
</svg>
